<svg width="68" height="68" viewBox="0 0 68 68" fill="none" xmlns="http://www.w3.org/2000/svg">
<mask id="mask0_2_53" style="mask-type:alpha" maskUnits="userSpaceOnUse" x="5" y="6" width="59" height="58">
<path d="M58.598 6.10599L63.3112 10.8193L10.4579 63.6726L5.74464 58.9593L58.598 6.10599Z" fill="white"/>
</mask>
<g mask="url(#mask0_2_53)">
<path fill-rule="evenodd" clip-rule="evenodd" d="M58.794 8.21813C49.3117 16.6624 39.7021 25.0374 30.7028 34.0014C26.4736 38.215 22.7118 42.9385 18.9393 47.5608C15.5283 51.7413 10.8649 56.1006 8.93025 61.1818C8.51165 62.2807 10.0277 63.4333 10.9851 62.7615C15.5452 59.5619 18.6919 53.7919 22.1461 49.4368C25.8626 44.7529 29.5665 39.9814 33.7928 35.7451C42.5426 26.9755 51.6642 18.5893 60.7831 10.2072C62.1202 8.97756 60.1389 7.02029 58.794 8.21813Z" fill="#7DC4DD"/>
</g>
<path fill-rule="evenodd" clip-rule="evenodd" d="M57.7037 9.9562C49.113 18.6345 37.0972 21.7069 26.7281 27.6028C27.1595 28.1699 27.5922 28.737 28.0236 29.3041C35.6865 21.5591 46.8057 18.9718 55.1623 12.1298C54.3484 11.6625 53.5339 11.1958 52.72 10.7284C50.8652 16.9134 47.9569 22.8029 44.1852 28.0369C42.0278 31.0315 39.9942 34.1159 41.3214 37.8898C41.9797 39.7615 44.9856 38.9759 44.3146 37.1042C42.8424 33.0001 47.7603 28.563 49.6334 25.2106C52.0793 20.8343 54.1299 16.282 55.542 11.4687C55.9811 9.97176 54.1398 9.20526 53.0997 10.0672C44.7926 16.9516 33.8869 19.6167 26.4983 27.7788C25.7156 28.6422 26.7175 30.1561 27.793 29.4794C37.9478 23.0935 49.8618 19.4512 58.1011 10.3536C58.3429 10.0877 57.9596 9.6974 57.7037 9.9562Z" fill="#7DC4DD"/>
</svg>
