<svg width="133" height="184" viewBox="0 0 133 184" fill="none" xmlns="http://www.w3.org/2000/svg">
<g clip-path="url(#clip0_10_1972)">
<path d="M2.0407 168.89H11.2239V111.009C11.2239 107.381 14.1803 104.432 17.8169 104.432H52.9798C54.0786 104.432 54.9943 105.32 54.9943 106.442C54.9943 107.538 54.1048 108.451 52.9798 108.451H17.8169C16.378 108.451 15.2268 109.599 15.2268 111.035V170.9C15.2268 171.996 14.3372 172.909 13.2122 172.909H4.02908V175.284C4.02908 177.893 6.54072 180.007 9.62794 180.007H118.675C121.762 180.007 124.274 177.893 124.274 175.258V172.883H115.09C113.992 172.883 113.076 171.996 113.076 170.874V141.202C113.076 140.106 113.965 139.193 115.09 139.193C116.189 139.193 117.105 140.08 117.105 141.202V168.864H126.288C127.387 168.864 128.303 169.751 128.303 170.874V175.258C128.303 180.086 123.986 184 118.675 184H9.62794C4.31688 184 0 180.086 0 175.284V170.9C0.0261688 169.778 0.915703 168.89 2.0407 168.89Z" fill="#183E4F"/>
<path d="M80.5622 166.623V166.19C80.5622 165.055 81.4521 164.108 82.5775 164.108H100.428C101.527 164.108 102.443 165.028 102.443 166.19C102.443 167.326 101.553 168.273 100.428 168.273H84.3835C83.6245 171.031 81.0595 173.059 77.9971 173.059H50.2794C47.2171 173.059 44.6521 171.031 43.893 168.273H27.8748C26.7755 168.273 25.8595 167.353 25.8595 166.19C25.8595 165.055 26.7494 164.108 27.8748 164.108H45.6728C46.7721 164.108 47.6882 165.028 47.6882 166.19V166.596C47.6882 167.867 48.8398 168.868 50.2794 168.868H77.9971C79.4105 168.895 80.5622 167.894 80.5622 166.623Z" fill="#183E4F"/>
<path d="M128.291 3.46576C128.265 3.43971 128.238 3.41365 128.212 3.38759C126.56 1.82409 123.569 0 118.585 0H77.3999C72.337 0 69.3465 1.8762 67.6939 3.46576C64.3099 6.74912 63.6541 10.1367 63.6541 14.9315V115.36C63.6541 120.155 64.3099 123.569 67.6939 126.826C69.3203 128.416 72.337 130.292 77.3736 130.292H118.559C123.595 130.292 126.612 128.416 128.238 126.826C131.622 123.543 132.278 120.155 132.278 115.36V14.9315C132.331 10.1367 131.675 6.74912 128.291 3.46576ZM128.212 115.36C128.212 119.321 127.793 121.614 125.432 123.908C124.356 124.95 122.284 126.201 118.611 126.201H77.4261C73.7536 126.201 71.6812 124.95 70.6057 123.908C68.2185 121.614 67.825 119.321 67.825 115.36V14.9315C67.825 10.9706 68.2447 8.67744 70.6057 6.3843C71.6812 5.34197 73.7536 4.06511 77.4261 4.06511H118.611C122.284 4.06511 124.356 5.31591 125.432 6.35824C125.458 6.3843 125.484 6.41036 125.51 6.41036C127.819 8.7035 128.238 10.9706 128.238 14.9054V115.36H128.212Z" fill="#183E4F"/>
<path d="M82.5889 14.9189H114.341C115.458 14.9189 116.368 14.0263 116.368 12.9297C116.368 11.8331 115.458 10.9405 114.341 10.9405H82.5889C81.4716 10.9405 80.5622 11.8331 80.5622 12.9297C80.5622 14.0263 81.4716 14.9189 82.5889 14.9189Z" fill="#183E4F"/>
<path fill-rule="evenodd" clip-rule="evenodd" d="M86.7803 53.65C87.6616 53.65 88.3425 53.8314 88.6961 54.1617C88.9428 54.3926 89.0348 54.6952 88.9619 55.0376C88.8912 55.3682 88.5158 55.7988 87.9522 56.1868C86.356 57.2933 86.6325 58.44 86.7559 58.7659C87.1253 59.7458 88.3592 60.2744 89.3307 60.2744H91.3935L89.4693 72.2362H89.5025C88.7862 76.7063 88.2531 80.0771 88.1545 80.7125H76.7374C76.9562 79.307 79.8139 61.4447 79.9949 60.2779L80.284 60.2785C80.3352 60.2786 80.3876 60.2787 80.4408 60.2788L80.932 60.2797C80.9867 60.2798 81.0412 60.2799 81.0948 60.28L81.405 60.2806C81.4542 60.2807 81.5019 60.2808 81.5477 60.2809L81.9809 60.2817C82.0052 60.2817 82.026 60.2818 82.043 60.2818L82.0956 60.2819C83.468 60.2744 84.7326 59.6558 85.3188 58.7053C85.8918 57.7835 85.6737 56.7953 84.7538 56.1251C84.4469 55.9025 84.0941 55.5414 84.1631 55.0946C84.2578 54.4912 85.2983 53.65 86.7803 53.65ZM104.537 49.7297C115.047 49.7297 122.376 54.2949 120.554 65.686C119.08 74.8822 111.581 80.7125 102.4 80.7125H100.224L101.7 71.4319C105.418 71.3905 108.534 69.6603 109.177 65.645C109.869 61.3232 107.674 59.4679 103.589 59.4363C103.589 59.4298 103.589 59.4262 103.589 59.4262H100.585C99.8935 59.4262 99.0045 59.0467 98.7742 58.4353C98.7023 58.2459 98.5559 57.563 99.6759 56.7842C100.106 56.4845 100.853 55.8735 101.009 55.1421C101.138 54.5293 100.956 53.937 100.507 53.5183C99.9968 53.0402 99.1441 52.7861 98.0414 52.7861C96.2007 52.7861 94.7926 53.8863 94.6325 54.9124C94.6226 54.9792 94.6159 55.0572 94.6159 55.1428C94.6159 55.5507 94.7767 56.152 95.5405 56.7109C95.8205 56.9157 96.0924 57.2173 96.0924 57.6202C96.0924 57.8049 96.0353 58.0094 95.8956 58.2369C95.458 58.9478 94.4421 59.4284 93.3644 59.4345L91.3935 59.4298L92.9458 49.7297H104.537Z" fill="#183E4F"/>
</g>
<defs>
<clipPath id="clip0_10_1972">
<rect width="133" height="184" fill="white"/>
</clipPath>
</defs>
</svg>
