<svg xmlns="http://www.w3.org/2000/svg" width="53" height="55" viewBox="0 0 53 55">
  <g fill="white">
    <path d="M24.607 37.94c.237 0 .503-.124.68-.309l19.284-20.078 5.205 5.42c.355.37.828.585 1.331.585 1.035 0 1.893-.893 1.893-1.97V5.82c0-1.078-.858-1.971-1.893-1.971H35.964c-1.035 0-1.893.893-1.893 1.97 0 .524.207 1.017.562 1.387l5.206 5.42-19.284 20.077c-.177.185-.296.462-.296.709 0 .246.119.523.296.708l3.372 3.51c.177.185.444.308.68.308zm8.518 13.21c4.703 0 8.518-3.972 8.518-8.869v-9.854c0-.554-.414-.985-.947-.985h-1.892c-.533 0-.947.43-.947.985v9.854c0 2.71-2.13 4.927-4.732 4.927H8.518c-2.603 0-4.732-2.217-4.732-4.927v-25.62c0-2.71 2.13-4.928 4.732-4.928h20.821c.533 0 .947-.43.947-.985v-1.97c0-.555-.414-.986-.947-.986H8.518C3.815 7.792 0 11.764 0 16.66v25.621c0 4.897 3.815 8.869 8.518 8.869h24.607z" transform="translate(-100 -806) translate(100 375) translate(0 431)"/>
  </g>
</svg>
